<svg xmlns="http://www.w3.org/2000/svg" width="414.531" height="407.452" viewBox="0 0 414.531 407.452">
  <g id="welcome_bg" transform="translate(0.413 0.131)">
    <path id="Path_2" data-name="Path 2" d="M0,400.8s27.156-53.025,100.571-56.289c38.983-1.733,114.4,50.809,186.533,61.2,63.617,9.16,127.014-23.773,127.014-23.773V.187H0Z" transform="translate(0 0)" fill="#006bff"/>
    <path id="Path_1" data-name="Path 1" d="M0,105.66S15.761,131.13,61.8,129.41s155.365-63.715,243.992-63.27,108.117,79.1,108.117,79.1V-.131H-.413Z" fill="#0059d4"/>
    <path id="Path_3" data-name="Path 3" d="M22.5,0C35.3,4.14,37.626,10.074,37.626,22.5S31.428,43.406,19,43.406,4.568,27.9,4.568,15.47,9.7-4.14,22.5,0Z" transform="translate(53 284.748)" fill="#0059d4"/>
    <path id="Path_5" data-name="Path 5" d="M31.692.6C49.749-2,54.571,15.84,54.571,34.636S45.2,66.259,26.4,66.259-12.414,44.6-12.414,25.8,13.635,3.207,31.692.6Z" transform="translate(311 110.403)" fill="#0059d4"/>
    <path id="Path_6" data-name="Path 6" d="M5.4.451C12.69-.6,14.638,6.6,14.638,14.2S10.852,26.966,3.261,26.966s-15.675-8.748-15.675-16.339S-1.894,1.5,5.4.451Z" transform="translate(277 95.275)" fill="#0059d4"/>
    <path id="Path_7" data-name="Path 7" d="M13.217.469c10.494-1.23,13.3,7.2,13.3,16.076S21.065,31.482,10.142,31.482-12.414,21.25-12.414,12.371,2.724,1.7,13.217.469Z" transform="translate(342 206.197)" fill="#1059bd"/>
    <path id="Path_4" data-name="Path 4" d="M14.224-.588c6.891,2.07,8.145,5.037,8.145,11.25s1.2,10.345-5.489,10.345S4.568,13.36,4.568,7.147,7.332-2.658,14.224-.588Z" transform="translate(126 311.689)" fill="#0059d4"/>
    <path id="Path_8" data-name="Path 8" d="M14.224-.588c8.762-2.127,8.145,5.037,8.145,11.25s-2.78,8.009-9.471,8.009S4.568,13.36,4.568,7.147,5.462,1.54,14.224-.588Z" transform="translate(210 34.291)" fill="#006bff"/>
    <path id="Path_9" data-name="Path 9" d="M14.224-.588c8.762-2.127,8.145,5.037,8.145,11.25S12.6,14.086,12.6,14.086,4.568,13.36,4.568,7.147,5.462,1.54,14.224-.588Z" transform="translate(380 41.291)" fill="#006bff"/>
  </g>
</svg>
